<?xml version="1.0" encoding="UTF-8"?>
<svg id="Layer_2" data-name="Layer 2" xmlns="http://www.w3.org/2000/svg" viewBox="0 0 1895.52 385.99">
  <defs>
    <style>
      .cls-1 {
        fill: #fff;
        stroke: #000;
        stroke-miterlimit: 10;
      }
    </style>
  </defs>
  <g id="Layer_1_copy_6" data-name="Layer 1 copy 6">
    <g>
      <path class="cls-1" d="M476.01,343.21c-15.42,0-29.32-2.53-41.71-7.58-12.39-5.06-22.88-12.13-31.46-21.23-8.6-9.1-15.17-19.97-19.72-32.61-4.55-12.38-6.82-26.15-6.82-41.32s2.91-29.43,8.72-42.83c5.81-13.14,13.65-24.52,23.5-34.12,9.6-8.84,20.97-15.42,34.11-19.72,13.14-4.04,26.67-6.06,40.57-6.06,15.92,0,30.32,2.27,43.22,6.82,12.88,4.81,23.88,11.63,32.99,20.46,8.84,8.85,15.78,19.59,20.84,32.22,4.81,12.64,7.21,26.92,7.21,42.85s-2.91,29.31-8.72,42.46c-5.81,13.4-13.78,24.89-23.89,34.5-11.37,10.36-23.63,17.31-36.77,20.85-13.4,3.54-27.42,5.31-42.07,5.31ZM481.69,286.72c6.56,0,12.37-1.26,17.43-3.78,4.81-2.28,8.98-5.57,12.52-9.86,3.28-4.05,5.8-8.85,7.57-14.41,1.51-5.56,2.27-11.38,2.27-17.44s-.76-11.88-2.27-17.44c-1.52-5.55-3.79-10.48-6.82-14.78-3.28-4.3-7.33-7.71-12.13-10.23-4.8-2.53-10.48-3.8-17.05-3.8s-12.01,1.14-17.05,3.41c-5.32,2.53-9.62,5.82-12.9,9.86-3.54,4.05-6.2,8.73-7.96,14.03-2.03,5.55-3.04,11.5-3.04,17.82,0,12.89,3.16,23.75,9.49,32.6,6.06,9.11,16.05,13.79,29.95,14.03Z"/>
      <path class="cls-1" d="M785.71,340.17h-70.13v-94.77c0-3.03.12-6.7.37-11,0-4.3-.25-8.6-.75-12.9-.26-3.54-.64-6.95-1.14-10.23-.76-3.03-1.77-5.81-3.04-8.33-1.52-2.53-3.54-4.56-6.07-6.07-2.53-1.51-5.94-2.27-10.23-2.27-6.82,0-12,2.03-15.54,6.07-3.54,4.29-6.32,8.71-8.33,13.25v126.25h-70.13v-198.26h66.72l2.27,16.29c4.8-7.83,11.62-13.39,20.46-16.68,8.6-3.03,17.32-4.55,26.17-4.55,11.88,0,22.36,2.03,31.46,6.07,9.1,4.29,17.18,10.99,24.27,20.09,7.58-8.84,16.42-15.42,26.54-19.72,9.85-4.04,20.59-6.06,32.22-6.06,12.88.25,23.75,2.53,32.6,6.82,8.6,4.55,15.67,10.49,21.23,17.82,5.3,7.58,9.1,16.43,11.37,26.54,2.27,10.1,3.41,21.09,3.41,32.97v118.66h-70.13v-94.02c0-3.28.13-7.07.39-11.37,0-4.3-.26-8.59-.76-12.88-.25-3.54-.63-6.96-1.14-10.25-.76-3.03-1.77-5.81-3.04-8.33-1.52-2.53-3.54-4.56-6.06-6.07-2.53-1.51-5.94-2.27-10.23-2.27-6.33,0-11.26,1.77-14.8,5.31s-6.32,7.46-8.33,11.76c.25,1.52.37,3.03.37,4.55v123.58Z"/>
      <path class="cls-1" d="M1013.15,224.92c0-4.55-.25-8.84-.75-12.88-.51-3.79-1.65-7.2-3.41-10.23-1.78-2.78-4.18-5.06-7.21-6.84-3.28-1.76-7.58-2.65-12.9-2.65-4.8,0-9.35.76-13.64,2.27-4.3,1.52-8.09,3.54-11.37,6.07-3.54,2.53-6.7,5.18-9.49,7.96-2.77,3.03-5.17,6.07-7.2,9.1l-30.71-40.57c4.3-4.8,9.1-9.47,14.41-14.02,5.06-4.55,10.87-8.59,17.44-12.13,6.57-3.54,13.9-6.45,21.99-8.72,8.09-2.02,17.18-3.04,27.29-3.04,16.68,0,30.59,1.77,41.71,5.31,10.86,3.79,19.58,9.48,26.15,17.05,6.57,7.59,11.25,17.2,14.03,28.81,2.52,11.63,3.78,25.4,3.78,41.32v108.43h-64.06l-3.8-18.58c-5.81,7.33-12.5,12.64-20.09,15.93-7.58,3.28-15.41,4.92-23.5,4.92s-15.54-1.26-22.36-3.78c-7.08-2.53-13.4-6.71-18.95-12.52-11.12-11.88-16.3-26.91-15.54-45.1,1.27-19.21,7.96-33.36,20.09-42.46,11.88-8.84,26.92-13.27,45.12-13.27,5.55,0,11.11.5,16.68,1.51,5.3,1.01,10.74,2.4,16.29,4.17v-6.07ZM1013.15,268.53c-3.28-1.51-7.45-2.27-12.51-2.27s-9.48.89-13.27,2.65c-4.04,1.77-6.06,4.54-6.06,8.33,0,4.3,1.89,7.46,5.68,9.49,3.54,2.27,7.58,3.41,12.13,3.41,5.81,0,10.48-1.39,14.02-4.17v-17.43Z"/>
      <path class="cls-1" d="M1172.74,340.17h-70.13v-198.26h70.13v198.26ZM1137.5,44.66c5.06,0,9.98.63,14.78,1.88,4.55,1.52,8.71,3.79,12.51,6.82,3.54,3.03,6.57,6.83,9.1,11.39,2.27,4.55,3.54,9.98,3.8,16.29.25,7.33-.76,13.53-3.04,18.58-2.27,5.31-5.31,9.61-9.1,12.9-4.05,3.53-8.6,6.05-13.64,7.57-5.32,1.52-10.63,2.27-15.93,2.27-5.31-.25-10.36-1.38-15.15-3.41-5.06-1.76-9.36-4.42-12.9-7.96-3.79-3.54-6.57-7.96-8.33-13.27-2.03-5.3-2.66-11.49-1.9-18.56.51-6.07,2.02-11.26,4.55-15.54,2.27-4.3,5.3-7.84,9.1-10.62,3.54-2.78,7.58-4.93,12.13-6.45,4.55-1.25,9.23-1.88,14.03-1.88Z"/>
      <path class="cls-1" d="M1187.53,340.17v-198.26h67.86l1.14,16.29c6.32-7.83,14.54-13.39,24.64-16.68,9.86-3.03,19.6-4.55,29.2-4.55,8.84,0,17.69,1.39,26.54,4.17,8.58,2.79,15.91,6.83,21.98,12.13,8.09,7.33,13.78,16.68,17.07,28.05,3.28,11.37,4.92,24.64,4.92,39.81v119.04h-69.76v-94.02c0-5.8-.13-12.62-.37-20.46-.25-7.84-1.77-14.66-4.55-20.46-1.77-3.29-4.04-5.95-6.82-7.97-3.03-1.76-6.95-2.65-11.76-2.65-7.58,0-13.9,2.4-18.95,7.21-5.31,4.8-8.97,9.85-11,15.15v123.21h-70.13Z"/>
      <path class="cls-1" d="M1496.86,224.92c0-4.55-.25-8.84-.75-12.88-.51-3.79-1.65-7.2-3.41-10.23-1.78-2.78-4.18-5.06-7.21-6.84-3.28-1.76-7.58-2.65-12.9-2.65-4.8,0-9.35.76-13.64,2.27-4.3,1.52-8.09,3.54-11.37,6.07-3.54,2.53-6.7,5.18-9.49,7.96-2.77,3.03-5.17,6.07-7.2,9.1l-30.71-40.57c4.3-4.8,9.1-9.47,14.41-14.02,5.06-4.55,10.87-8.59,17.44-12.13,6.57-3.54,13.9-6.45,21.99-8.72,8.09-2.02,17.18-3.04,27.29-3.04,16.68,0,30.59,1.77,41.71,5.31,10.86,3.79,19.58,9.48,26.15,17.05,6.57,7.59,11.25,17.2,14.03,28.81,2.52,11.63,3.78,25.4,3.78,41.32v108.43h-64.06l-3.8-18.58c-5.81,7.33-12.5,12.64-20.09,15.93-7.58,3.28-15.41,4.92-23.5,4.92s-15.54-1.26-22.36-3.78c-7.08-2.53-13.4-6.71-18.95-12.52-11.12-11.88-16.3-26.91-15.54-45.1,1.27-19.21,7.96-33.36,20.09-42.46,11.88-8.84,26.92-13.27,45.12-13.27,5.55,0,11.11.5,16.68,1.51,5.3,1.01,10.74,2.4,16.29,4.17v-6.07ZM1496.86,268.53c-3.28-1.51-7.45-2.27-12.51-2.27s-9.48.89-13.27,2.65c-4.04,1.77-6.06,4.54-6.06,8.33,0,4.3,1.89,7.46,5.68,9.49,3.54,2.27,7.58,3.41,12.13,3.41,5.81,0,10.48-1.39,14.02-4.17v-17.43Z"/>
      <path class="cls-1" d="M1584.43,101.34h70.13v238.83h-70.13V101.34Z"/>
      <path class="cls-1" d="M408.97.5c1.82,15.85,2.28,31.6,1.35,47.26-1.77,29.94-7.05,58.47-15.85,85.59-8.8,27.12-19.55,51.52-32.24,73.19-12.68,21.67-21.46,39.54-34.14,53.63,3.87,11.98,6.78,24.57,8.72,37.78,1.94,13.21,2.91,26.51,2.91,39.89h-104.61c.7-17.96-1.23-36.01-5.81-54.15-4.58-18.15-11.1-34.79-19.55-49.94-8.46-15.15-18.67-27.39-30.65-36.72-11.98-9.33-25.19-14-39.63-14-16.2,0-29.15,3.79-38.83,11.37-9.68,7.57-14.52,17.52-14.52,29.85s4.84,21.84,14.52,29.59c9.69,7.74,22.63,11.61,38.83,11.61,21.13,0,41.92-5.81,62.35-17.43,5.28,10.57,9.77,22.19,13.46,34.87,3.7,12.68,6.08,25.89,7.15,39.63-31.7,11.27-60.06,16.91-85.07,16.91-26.42,0-49.94-5.37-70.54-16.11-20.61-10.75-36.81-24.84-48.61-42.28C6.4,263.6.5,244.67.5,224.24s5.9-39.36,17.7-56.8c11.8-17.44,28-31.45,48.61-42.02,20.6-10.57,44.12-15.85,70.54-15.85,29.59,0,56.63,5.99,81.11,17.96,24.48,11.98,45.53,28.18,63.13,48.61,12.68-19.73,21.13-41.12,25.35-64.19,4.23-23.07,5.03-46.41,2.39-70.02-1.56-13.97-4.21-27.7-7.93-41.17l107.57-.27Z"/>
      <path class="cls-1" d="M1894.77,140.09l-102.4,245.4-79.29-.18,28.85-69.19-74.94-175.51,84.91.06,31.1,90.74,34.53-91.52,77.25.19Z"/>
    </g>
  </g>
</svg>