<?xml version="1.0" encoding="UTF-8"?>
<svg id="Layer_2" data-name="Layer 2" xmlns="http://www.w3.org/2000/svg" xmlns:xlink="http://www.w3.org/1999/xlink" viewBox="0 0 375.18 310.1">
  <defs>
    <style>
      .cls-1 {
        fill: url(#linear-gradient);
        stroke: #000;
        stroke-miterlimit: 10;
      }
    </style>
    <linearGradient id="linear-gradient" x1=".5" y1="155.05" x2="374.68" y2="155.05" gradientUnits="userSpaceOnUse">
      <stop offset="0" stop-color="#91009d"/>
      <stop offset="1" stop-color="#000160"/>
    </linearGradient>
  </defs>
  <g id="Layer_1_copy_4" data-name="Layer 1 copy 4">
    <path class="cls-1" d="M373.02.5c1.66,14.45,2.08,28.82,1.23,43.1-1.61,27.31-6.43,53.32-14.46,78.06-8.03,24.74-17.83,46.98-29.4,66.74-11.56,19.76-19.57,36.06-31.14,48.91,3.53,10.92,6.18,22.41,7.95,34.45,1.77,12.05,2.65,24.17,2.65,36.38h-95.41c.64-16.38-1.13-32.84-5.3-49.38-4.18-16.55-10.12-31.73-17.83-45.55-7.71-13.81-17.03-24.98-27.95-33.49-10.92-8.51-22.97-12.77-36.14-12.77-14.78,0-26.58,3.46-35.42,10.37-8.83,6.9-13.24,15.98-13.24,27.23s4.41,19.92,13.24,26.99c8.84,7.06,20.64,10.59,35.42,10.59,19.27,0,38.23-5.3,56.86-15.89,4.82,9.64,8.91,20.24,12.28,31.8,3.38,11.56,5.55,23.61,6.52,36.14-28.91,10.28-54.78,15.42-77.59,15.42-24.1,0-45.54-4.9-64.33-14.69-18.79-9.81-33.57-22.66-44.33-38.56C5.88,240.44.5,223.18.5,204.55s5.38-35.9,16.15-51.8c10.76-15.91,25.54-28.68,44.33-38.32,18.79-9.64,40.23-14.46,64.33-14.46,26.99,0,51.64,5.46,73.97,16.38,22.33,10.92,41.52,25.7,57.58,44.33,11.56-17.99,19.27-37.5,23.12-58.54,3.86-21.04,4.58-42.33,2.18-63.86-1.43-12.74-3.84-25.26-7.23-37.55l98.1-.25Z"/>
  </g>
</svg>