<?xml version="1.0" encoding="UTF-8"?>
<svg id="Layer_2" data-name="Layer 2" xmlns="http://www.w3.org/2000/svg" xmlns:xlink="http://www.w3.org/1999/xlink" viewBox="0 0 596.45 596.45">
  <defs>
    <style>
      .cls-1 {
        fill: url(#linear-gradient);
      }

      .cls-1, .cls-2 {
        stroke: #000;
        stroke-miterlimit: 10;
      }

      .cls-2 {
        fill: #fff;
      }
    </style>
    <linearGradient id="linear-gradient" x1="77.12" y1="298.23" x2="519.33" y2="298.23" gradientUnits="userSpaceOnUse">
      <stop offset="0" stop-color="#91009d"/>
      <stop offset="1" stop-color="#000160"/>
    </linearGradient>
  </defs>
  <g id="Layer_1_copy_4" data-name="Layer 1 copy 4">
    <g>
      <rect class="cls-2" x=".5" y=".5" width="595.45" height="595.45" rx="94.62" ry="94.62"/>
      <path class="cls-1" d="M517.37,115.58c1.97,17.08,2.45,34.06,1.46,50.94-1.9,32.27-7.6,63.02-17.09,92.25s-21.07,55.53-34.75,78.88c-13.67,23.35-23.13,42.62-36.8,57.8,4.18,12.91,7.31,26.48,9.4,40.72,2.09,14.24,3.13,28.57,3.13,42.99h-112.75c.76-19.36-1.33-38.81-6.27-58.36-4.94-19.56-11.96-37.5-21.08-53.83-9.12-16.32-20.13-29.52-33.03-39.58-12.91-10.06-27.15-15.09-42.71-15.09-17.46,0-31.41,4.09-41.86,12.25-10.43,8.16-15.65,18.88-15.65,32.17s5.22,23.54,15.65,31.89c10.44,8.35,24.39,12.52,41.86,12.52,22.78,0,45.18-6.26,67.2-18.78,5.69,11.39,10.53,23.92,14.51,37.58,3.99,13.67,6.56,27.9,7.7,42.71-34.17,12.15-64.73,18.22-91.69,18.22-28.48,0-53.82-5.79-76.03-17.37-22.21-11.59-39.68-26.77-52.39-45.57-12.72-18.8-19.08-39.2-19.08-61.22s6.36-42.42,19.08-61.22c12.72-18.8,30.18-33.89,52.39-45.29,22.21-11.39,47.55-17.09,76.03-17.09,31.89,0,61.03,6.46,87.42,19.36,26.38,12.91,49.07,30.37,68.04,52.39,13.66-21.26,22.77-44.32,27.33-69.18,4.56-24.87,5.42-50.02,2.57-75.47-1.69-15.06-4.54-29.85-8.55-44.37l115.94-.29Z"/>
    </g>
  </g>
</svg>