<?xml version="1.0" encoding="UTF-8"?>
<svg id="Layer_2" data-name="Layer 2" xmlns="http://www.w3.org/2000/svg" xmlns:xlink="http://www.w3.org/1999/xlink" viewBox="0 0 2239.15 455.48">
  <defs>
    <style>
      .cls-1 {
        fill: url(#linear-gradient);
        stroke: #000;
        stroke-miterlimit: 10;
      }
    </style>
    <linearGradient id="linear-gradient" x1=".5" y1="200.77" x2="485.38" y2="200.77" gradientUnits="userSpaceOnUse">
      <stop offset="0" stop-color="#91009d"/>
      <stop offset="1" stop-color="#000160"/>
    </linearGradient>
  </defs>
  <g id="Layer_1_copy" data-name="Layer 1 copy">
    <g>
      <path d="M562.45,405.52c-18.23,0-34.66-2.99-49.29-8.96-14.64-5.97-27.04-14.34-37.18-25.09-10.16-10.75-17.93-23.59-23.3-38.54-5.37-14.63-8.06-30.9-8.06-48.83s3.44-34.79,10.31-50.62c6.87-15.53,16.13-28.97,27.77-40.33,11.35-10.45,24.78-18.22,40.31-23.3,15.53-4.77,31.52-7.16,47.95-7.16,18.81,0,35.84,2.69,51.08,8.06,15.23,5.68,28.22,13.74,38.98,24.19,10.44,10.46,18.65,23.15,24.63,38.08,5.68,14.93,8.52,31.81,8.52,50.64s-3.44,34.64-10.31,50.17c-6.87,15.83-16.29,29.42-28.24,40.77-13.44,12.25-27.92,20.46-43.46,24.65-15.83,4.18-32.4,6.28-49.71,6.28ZM569.17,338.76c7.75,0,14.62-1.49,20.6-4.47,5.68-2.7,10.61-6.58,14.8-11.65,3.88-4.78,6.86-10.46,8.94-17.03,1.79-6.57,2.69-13.45,2.69-20.61s-.9-14.04-2.69-20.61c-1.79-6.56-4.48-12.39-8.06-17.47-3.88-5.08-8.66-9.11-14.34-12.09-5.67-2.99-12.39-4.49-20.15-4.49s-14.19,1.34-20.15,4.03c-6.29,2.99-11.36,6.88-15.24,11.65-4.18,4.79-7.32,10.32-9.41,16.58-2.39,6.56-3.59,13.58-3.59,21.06,0,15.23,3.73,28.07,11.21,38.52,7.16,10.76,18.96,16.29,35.39,16.58Z"/>
      <path d="M928.46,401.93h-82.88v-112c0-3.58.14-7.91.44-12.99,0-5.08-.3-10.16-.88-15.24-.31-4.18-.76-8.22-1.34-12.09-.9-3.58-2.09-6.86-3.59-9.85-1.79-2.99-4.18-5.38-7.18-7.18-2.98-1.79-7.02-2.69-12.09-2.69-8.06,0-14.18,2.39-18.37,7.18-4.18,5.07-7.47,10.29-9.85,15.66v149.2h-82.88v-234.31h78.85l2.69,19.25c5.67-9.25,13.73-15.82,24.19-19.71,10.16-3.58,20.47-5.37,30.92-5.37,14.04,0,26.43,2.39,37.18,7.18,10.75,5.07,20.31,12.99,28.68,23.74,8.95-10.45,19.41-18.22,31.36-23.3,11.64-4.77,24.34-7.16,38.08-7.16,15.23.3,28.07,2.98,38.52,8.06,10.16,5.37,18.52,12.39,25.09,21.06,6.27,8.96,10.75,19.42,13.44,31.36,2.69,11.94,4.03,24.93,4.03,38.96v140.23h-82.88v-111.12c0-3.88.15-8.35.46-13.44,0-5.08-.3-10.15-.9-15.22-.3-4.18-.74-8.22-1.34-12.11-.9-3.58-2.09-6.86-3.59-9.85-1.79-2.99-4.18-5.38-7.16-7.18-2.99-1.79-7.03-2.69-12.09-2.69-7.48,0-13.3,2.09-17.49,6.28s-7.47,8.82-9.85,13.9c.29,1.79.44,3.58.44,5.37v146.05Z"/>
      <path d="M1197.26,265.72c0-5.37-.3-10.45-.88-15.22-.6-4.48-1.95-8.51-4.03-12.09-2.1-3.29-4.94-5.98-8.52-8.08-3.88-2.08-8.96-3.13-15.24-3.13-5.67,0-11.05.9-16.12,2.69-5.08,1.79-9.56,4.18-13.44,7.18-4.18,2.98-7.92,6.12-11.21,9.41-3.28,3.58-6.11,7.17-8.5,10.75l-36.3-47.95c5.08-5.67,10.75-11.19,17.03-16.56,5.97-5.37,12.85-10.15,20.61-14.34,7.76-4.18,16.43-7.62,25.99-10.31,9.56-2.39,20.31-3.59,32.25-3.59,19.72,0,36.15,2.09,49.29,6.28,12.83,4.48,23.13,11.2,30.9,20.15,7.76,8.97,13.29,20.32,16.58,34.05,2.98,13.74,4.47,30.02,4.47,48.83v128.14h-75.7l-4.49-21.96c-6.86,8.67-14.77,14.94-23.74,18.83-8.96,3.88-18.22,5.82-27.77,5.82s-18.37-1.49-26.43-4.47c-8.37-2.99-15.84-7.93-22.4-14.8-13.14-14.04-19.27-31.81-18.37-53.3,1.5-22.7,9.41-39.43,23.74-50.17,14.04-10.45,31.81-15.68,53.32-15.68,6.56,0,13.13.6,19.71,1.79,6.27,1.19,12.69,2.84,19.25,4.93v-7.18ZM1197.26,317.26c-3.88-1.79-8.81-2.69-14.78-2.69s-11.2,1.05-15.68,3.13c-4.77,2.09-7.16,5.37-7.16,9.85,0,5.08,2.24,8.82,6.72,11.21,4.18,2.69,8.96,4.03,14.34,4.03,6.87,0,12.39-1.64,16.56-4.93v-20.6Z"/>
      <path d="M1385.86,401.93h-82.88v-234.31h82.88v234.31ZM1344.21,52.68c5.97,0,11.8.74,17.47,2.23,5.37,1.79,10.3,4.48,14.78,8.06,4.18,3.58,7.76,8.07,10.75,13.46,2.69,5.37,4.18,11.8,4.49,19.25.29,8.67-.9,15.98-3.59,21.96-2.69,6.27-6.27,11.35-10.75,15.24-4.79,4.17-10.16,7.15-16.12,8.94-6.29,1.79-12.56,2.69-18.83,2.69-6.27-.29-12.24-1.64-17.91-4.03-5.98-2.08-11.06-5.22-15.24-9.41-4.48-4.18-7.76-9.41-9.85-15.68-2.39-6.27-3.14-13.58-2.25-21.94.6-7.18,2.39-13.3,5.37-18.37,2.69-5.08,6.27-9.26,10.75-12.55,4.18-3.29,8.96-5.83,14.34-7.62,5.37-1.48,10.9-2.23,16.58-2.23Z"/>
      <path d="M1403.33,401.93v-234.31h80.19l1.34,19.25c7.47-9.25,17.18-15.82,29.12-19.71,11.66-3.58,23.16-5.37,34.51-5.37,10.45,0,20.91,1.65,31.36,4.93,10.14,3.29,18.8,8.07,25.97,14.34,9.56,8.67,16.28,19.71,20.17,33.15,3.88,13.44,5.82,29.12,5.82,47.05v140.68h-82.44v-111.12c0-6.86-.15-14.92-.44-24.19-.3-9.26-2.09-17.32-5.37-24.19-2.09-3.89-4.77-7.03-8.06-9.42-3.58-2.08-8.22-3.13-13.9-3.13-8.96,0-16.43,2.84-22.4,8.52-6.27,5.67-10.6,11.64-12.99,17.91v145.61h-82.88Z"/>
      <path d="M1768.9,265.72c0-5.37-.3-10.45-.88-15.22-.6-4.48-1.95-8.51-4.03-12.09-2.1-3.29-4.94-5.98-8.52-8.08-3.88-2.08-8.96-3.13-15.24-3.13-5.67,0-11.05.9-16.12,2.69-5.08,1.79-9.56,4.18-13.44,7.18-4.18,2.98-7.92,6.12-11.21,9.41-3.28,3.58-6.11,7.17-8.5,10.75l-36.3-47.95c5.08-5.67,10.75-11.19,17.03-16.56,5.97-5.37,12.85-10.15,20.61-14.34,7.76-4.18,16.43-7.62,25.99-10.31,9.56-2.39,20.31-3.59,32.25-3.59,19.72,0,36.15,2.09,49.29,6.28,12.83,4.48,23.13,11.2,30.9,20.15,7.76,8.97,13.29,20.32,16.58,34.05,2.98,13.74,4.47,30.02,4.47,48.83v128.14h-75.7l-4.49-21.96c-6.86,8.67-14.77,14.94-23.74,18.83-8.96,3.88-18.22,5.82-27.77,5.82s-18.37-1.49-26.43-4.47c-8.37-2.99-15.84-7.93-22.4-14.8-13.14-14.04-19.27-31.81-18.37-53.3,1.5-22.7,9.41-39.43,23.74-50.17,14.04-10.45,31.81-15.68,53.32-15.68,6.56,0,13.13.6,19.71,1.79,6.27,1.19,12.69,2.84,19.25,4.93v-7.18ZM1768.9,317.26c-3.88-1.79-8.81-2.69-14.78-2.69s-11.2,1.05-15.68,3.13c-4.77,2.09-7.16,5.37-7.16,9.85,0,5.08,2.24,8.82,6.72,11.21,4.18,2.69,8.96,4.03,14.34,4.03,6.87,0,12.39-1.64,16.56-4.93v-20.6Z"/>
      <path d="M1872.4,119.67h82.88v282.25h-82.88V119.67Z"/>
      <path class="cls-1" d="M483.23.5c2.16,18.73,2.69,37.35,1.6,55.85-2.09,35.39-8.33,69.1-18.73,101.15-10.4,32.05-23.11,60.88-38.1,86.49-14.99,25.61-25.37,46.73-40.35,63.38,4.58,14.16,8.01,29.04,10.31,44.65,2.29,15.61,3.44,31.33,3.44,47.14h-123.63c.83-21.23-1.46-42.56-6.87-63.99-5.41-21.45-13.12-41.12-23.11-59.02-10-17.9-22.07-32.37-36.22-43.4-14.16-11.03-29.77-16.55-46.83-16.55-19.15,0-34.44,4.48-45.89,13.44-11.44,8.94-17.16,20.71-17.16,35.28s5.72,25.81,17.16,34.97c11.45,9.15,26.75,13.72,45.89,13.72,24.98,0,49.54-6.86,73.69-20.6,6.24,12.49,11.55,26.23,15.91,41.21,4.38,14.99,7.19,30.6,8.45,46.83-37.47,13.32-70.98,19.98-100.54,19.98-31.22,0-59.01-6.34-83.36-19.04-24.35-12.71-43.5-29.36-57.45-49.96C7.47,311.43.5,289.06.5,264.92s6.97-46.52,20.92-67.12c13.94-20.61,33.1-37.17,57.45-49.66,24.35-12.49,52.14-18.73,83.36-18.73,34.97,0,66.92,7.08,95.86,21.23,28.93,14.16,53.8,33.3,74.61,57.45,14.98-23.31,24.97-48.6,29.96-75.86,5-27.27,5.94-54.85,2.82-82.75-1.85-16.51-4.97-32.73-9.37-48.66l127.12-.32Z"/>
      <path d="M2239.15,165.47l-121.02,290.01-93.71-.21,34.09-81.77-88.56-207.42,100.35.08,36.76,107.24,40.81-108.16,91.29.23Z"/>
    </g>
  </g>
</svg>